<svg width="16" height="12" viewBox="0 0 16 12" fill="none" xmlns="http://www.w3.org/2000/svg">
<path d="M1.42218 3.45429C1.22223 3.31147 1.12225 3.24005 1.03509 3.23078C0.904739 3.21692 0.7741 3.28415 0.709617 3.39828C0.666499 3.47459 0.6665 3.5961 0.666504 3.83912V8.16087C0.666496 8.69751 0.666489 9.14042 0.695967 9.50122C0.726584 9.87595 0.792294 10.2204 0.957154 10.544C1.21282 11.0457 1.62076 11.4537 2.12253 11.7094C2.44609 11.8742 2.79056 11.9399 3.16529 11.9705C3.52608 12 3.96898 12 4.50562 12H11.4941C12.0307 12 12.4736 12 12.8344 11.9705C13.2091 11.9399 13.5536 11.8742 13.8771 11.7094C14.3789 11.4537 14.7869 11.0457 15.0425 10.544C15.2074 10.2204 15.2731 9.87595 15.3037 9.50122C15.3332 9.14042 15.3332 8.69752 15.3332 8.16088V3.83912C15.3332 3.72001 15.3332 3.66045 15.3223 3.61886C15.2729 3.43084 15.0685 3.32374 14.8859 3.39021C14.8455 3.40491 14.7959 3.43924 14.6967 3.50789L9.53527 7.08129C9.16932 7.33544 8.848 7.55859 8.48296 7.64707C8.16368 7.72446 7.83026 7.72201 7.51215 7.63993C7.14845 7.54609 6.83045 7.31824 6.46827 7.05874L1.42218 3.45429Z" fill="#010817"/>
<path d="M14.755 1.84581C14.8781 1.76061 14.9396 1.71801 14.9774 1.64949C15.0068 1.59629 15.0236 1.51203 15.0169 1.45163C15.0082 1.37386 14.9752 1.32251 14.909 1.21982C14.6558 0.826428 14.2914 0.501704 13.8771 0.29065C13.5536 0.12579 13.2091 0.0600801 12.8344 0.0294633C12.4736 -1.47695e-05 12.0307 -7.96811e-06 11.494 2.74431e-07H4.50564C3.969 -7.96811e-06 3.52608 -1.4772e-05 3.16529 0.0294633C2.79056 0.0600801 2.44609 0.12579 2.12253 0.29065C1.74984 0.480544 1.4277 0.755068 1.18275 1.0889C1.10568 1.19393 1.06715 1.24644 1.05445 1.32614C1.04453 1.38846 1.05839 1.47505 1.08728 1.53116C1.12422 1.60291 1.1883 1.64868 1.31645 1.74022L7.16653 5.91884C7.65134 6.26514 7.75422 6.32539 7.84526 6.34888C7.9513 6.37624 8.06244 6.37706 8.16887 6.35126C8.26025 6.32911 8.364 6.27038 8.85385 5.93125L14.755 1.84581Z" fill="#010817"/>
</svg>
