<svg width="14" height="14" viewBox="0 0 14 14" fill="none" xmlns="http://www.w3.org/2000/svg">
<path d="M9.75 0.75H4.25C3.32206 0.751051 2.43244 1.12014 1.77629 1.77629C1.12014 2.43244 0.751051 3.32206 0.75 4.25V9.75C0.751051 10.6779 1.12014 11.5676 1.77629 12.2237C2.43244 12.8799 3.32206 13.2489 4.25 13.25H9.75C10.6779 13.2489 11.5676 12.8799 12.2237 12.2237C12.8799 11.5676 13.2489 10.6779 13.25 9.75V4.25C13.2489 3.32206 12.8799 2.43244 12.2237 1.77629C11.5676 1.12014 10.6779 0.751051 9.75 0.75ZM7 10C6.40666 10 5.82664 9.82405 5.33329 9.49441C4.83994 9.16476 4.45542 8.69623 4.22836 8.14805C4.0013 7.59987 3.94189 6.99667 4.05764 6.41473C4.1734 5.83279 4.45912 5.29824 4.87868 4.87868C5.29824 4.45912 5.83279 4.1734 6.41473 4.05764C6.99667 3.94189 7.59987 4.0013 8.14805 4.22836C8.69623 4.45542 9.16476 4.83994 9.49441 5.33329C9.82405 5.82664 10 6.40666 10 7C9.9991 7.79537 9.68274 8.55791 9.12033 9.12033C8.55791 9.68274 7.79537 9.9991 7 10ZM10.25 4.5C10.1017 4.5 9.95666 4.45601 9.83332 4.3736C9.70999 4.29119 9.61386 4.17406 9.55709 4.03701C9.50033 3.89997 9.48547 3.74917 9.51441 3.60368C9.54335 3.4582 9.61478 3.32456 9.71967 3.21967C9.82456 3.11478 9.9582 3.04335 10.1037 3.01441C10.2492 2.98547 10.4 3.00032 10.537 3.05709C10.6741 3.11386 10.7912 3.20999 10.8736 3.33332C10.956 3.45666 11 3.60166 11 3.75C11 3.94891 10.921 4.13968 10.7803 4.28033C10.6397 4.42098 10.4489 4.5 10.25 4.5Z" fill="white"/>
</svg>
