<svg width="14" height="14" viewBox="0 0 14 14" fill="none" xmlns="http://www.w3.org/2000/svg">
<path d="M13.5 4.25V6.75C13.5 6.81566 13.4871 6.88068 13.4619 6.94134C13.4368 7.00201 13.4 7.05713 13.3536 7.10356C13.3071 7.14999 13.252 7.18682 13.1913 7.21194C13.1307 7.23707 13.0657 7.25 13 7.25C11.9555 7.25229 10.9261 7.00121 9.99997 6.51828L10 8.75C9.99986 9.6536 9.74199 10.5384 9.25665 11.3006C8.77131 12.0628 8.07863 12.6708 7.2599 13.0531C6.44118 13.4354 5.53038 13.5763 4.6344 13.4592C3.73842 13.3421 2.89443 12.9719 2.20148 12.392C1.50852 11.812 0.995364 11.0465 0.722218 10.1851C0.449071 9.32382 0.427273 8.40245 0.659381 7.52916C0.891488 6.65588 1.36787 5.86692 2.03262 5.25487C2.69737 4.64282 3.52291 4.23308 4.41235 4.07373C4.4843 4.06092 4.55819 4.06403 4.62881 4.08285C4.69942 4.10168 4.76506 4.13575 4.82108 4.18268C4.87711 4.22961 4.92216 4.28825 4.95307 4.35448C4.98399 4.4207 5 4.4929 5 4.56598L4.99997 7.16843C4.99997 7.263 4.97316 7.35562 4.92264 7.43556C4.87211 7.5155 4.79996 7.57948 4.71454 7.62006C4.51234 7.71586 4.33956 7.86417 4.21422 8.04951C4.08889 8.23486 4.01559 8.45044 4.00198 8.67377C3.98836 8.8971 4.03494 9.11999 4.13683 9.31918C4.23873 9.51838 4.39222 9.68657 4.58128 9.80623C4.77035 9.92588 4.98806 9.99259 5.2117 9.99942C5.43534 10.0062 5.65671 9.95292 5.85272 9.84503C6.04873 9.73713 6.21219 9.5786 6.32604 9.38599C6.43989 9.19338 6.49997 8.97374 6.5 8.75V0.75C6.5 0.684339 6.51293 0.61932 6.53806 0.558656C6.56318 0.497992 6.60001 0.442872 6.64644 0.396442C6.69287 0.350013 6.74799 0.313183 6.80866 0.288056C6.86932 0.26293 6.93434 0.249998 7 0.25H9.5C9.56566 0.249998 9.63068 0.26293 9.69134 0.288056C9.75201 0.313183 9.80713 0.350013 9.85356 0.396442C9.89999 0.442872 9.93682 0.497992 9.96194 0.558656C9.98707 0.61932 10 0.684339 10 0.75C10.0009 1.54537 10.3173 2.30791 10.8797 2.87033C11.4421 3.43274 12.2046 3.7491 13 3.75C13.0657 3.75 13.1307 3.76293 13.1913 3.78806C13.252 3.81318 13.3071 3.85001 13.3536 3.89644C13.4 3.94287 13.4368 3.99799 13.4619 4.05866C13.4871 4.11932 13.5 4.18434 13.5 4.25Z" fill="white"/>
</svg>
