<svg width="15" height="13" viewBox="0 0 15 13" fill="none" xmlns="http://www.w3.org/2000/svg">
<path d="M14.3534 2.85363L12.4681 4.73892C12.0917 9.10647 8.40842 12.5001 3.99979 12.5001C3.09201 12.5001 2.34391 12.3562 1.77619 12.0723C1.31803 11.8432 1.13034 11.5973 1.08377 11.5274C1.04199 11.4648 1.01491 11.3935 1.00455 11.3189C0.994188 11.2443 1.00081 11.1683 1.02393 11.0966C1.04705 11.0249 1.08607 10.9594 1.13807 10.9049C1.19006 10.8504 1.2537 10.8084 1.32422 10.7819C1.3403 10.7758 2.81473 10.2096 3.76767 9.13137C3.17494 8.7093 2.65326 8.19546 2.22226 7.60918C1.36551 6.44646 0.459387 4.42724 1.00785 1.41064C1.02417 1.32086 1.06475 1.23727 1.12519 1.1689C1.18563 1.10054 1.26362 1.05002 1.35072 1.02282C1.43781 0.995613 1.53069 0.99276 1.6193 1.01457C1.7079 1.03638 1.78885 1.08201 1.85337 1.14654C1.8754 1.16851 3.956 3.21972 6.49945 3.88229L6.49979 3.49984C6.50518 2.6993 6.82821 1.93365 7.39789 1.37119C7.96757 0.808727 8.73727 0.49548 9.53781 0.500299C10.0579 0.507501 10.5672 0.649469 11.016 0.912334C11.4648 1.1752 11.8377 1.54998 12.0984 2.00005L13.9998 2.00009C14.0987 2.00008 14.1953 2.02941 14.2776 2.08435C14.3598 2.13929 14.4239 2.21737 14.4617 2.30874C14.4996 2.4001 14.5095 2.50063 14.4902 2.59762C14.4709 2.69461 14.4233 2.7837 14.3534 2.85363Z" fill="#010817"/>
</svg>
