<svg width="15" height="13" viewBox="0 0 15 13" fill="none" xmlns="http://www.w3.org/2000/svg">
<path d="M14.3536 2.85363L12.4684 4.73892C12.092 9.10647 8.40866 12.5001 4.00003 12.5001C3.09226 12.5001 2.34415 12.3562 1.77643 12.0723C1.31827 11.8432 1.13059 11.5973 1.08402 11.5274C1.04224 11.4648 1.01516 11.3935 1.00479 11.3189C0.994432 11.2443 1.00106 11.1683 1.02418 11.0966C1.0473 11.0249 1.08631 10.9594 1.13831 10.9049C1.19031 10.8504 1.25394 10.8084 1.32447 10.7819C1.34055 10.7758 2.81497 10.2096 3.76792 9.13137C3.17518 8.7093 2.6535 8.19546 2.22251 7.60918C1.36576 6.44646 0.459631 4.42724 1.00809 1.41064C1.02441 1.32086 1.06499 1.23727 1.12543 1.1689C1.18587 1.10054 1.26386 1.05002 1.35096 1.02282C1.43806 0.995613 1.53094 0.99276 1.61954 1.01457C1.70814 1.03638 1.78909 1.08201 1.85361 1.14654C1.87564 1.16851 3.95624 3.21972 6.4997 3.88229L6.50003 3.49984C6.50542 2.6993 6.82845 1.93365 7.39813 1.37119C7.96781 0.808727 8.73751 0.49548 9.53806 0.500299C10.0581 0.507501 10.5674 0.649469 11.0162 0.912334C11.465 1.1752 11.8379 1.54998 12.0986 2.00005L14 2.00009C14.0989 2.00008 14.1956 2.02941 14.2778 2.08435C14.36 2.13929 14.4241 2.21737 14.462 2.30874C14.4998 2.4001 14.5097 2.50063 14.4904 2.59762C14.4711 2.69461 14.4235 2.7837 14.3536 2.85363Z" fill="white"/>
</svg>
