<svg width="14" height="12" viewBox="0 0 14 12" fill="none" xmlns="http://www.w3.org/2000/svg">
<path d="M13.6457 2.3624C13.5864 2.13243 13.4732 1.91986 13.3156 1.74222C13.158 1.56459 12.9604 1.42698 12.7391 1.34076C10.5973 0.517705 7.18622 0.524571 7 0.525547C6.81388 0.524052 3.4028 0.517672 1.26093 1.34076C1.03965 1.42698 0.842047 1.56458 0.684422 1.7422C0.526797 1.91982 0.413668 2.13238 0.35437 2.36234C0.192687 2.98301 0 4.11792 0 6.00007C0 7.88218 0.192687 9.01709 0.354339 9.63773C0.413627 9.8677 0.526752 10.0803 0.684377 10.2579C0.842003 10.4355 1.03961 10.5731 1.2609 10.6594C3.31128 11.4473 6.52475 11.4747 6.95883 11.4747C6.99762 11.4747 7.00238 11.4747 7.04117 11.4747C7.47559 11.4747 10.6888 11.4472 12.7391 10.6594C12.9604 10.5732 13.158 10.4356 13.3156 10.2579C13.4732 10.0803 13.5863 9.86775 13.6456 9.63779C13.8073 9.01713 14 7.88221 14 6.00007C14 4.11795 13.8073 2.98304 13.6457 2.3624ZM9.13867 6.20807L6.13867 8.20807C6.10102 8.23318 6.05727 8.2476 6.01207 8.24978C5.96687 8.25197 5.92192 8.24185 5.88203 8.2205C5.84213 8.19915 5.80878 8.16736 5.78552 8.12854C5.76227 8.08972 5.74999 8.04532 5.75 8.00007V4.00007C5.74999 3.95481 5.76227 3.91041 5.78552 3.87159C5.80878 3.83277 5.84213 3.80099 5.88203 3.77963C5.92192 3.75828 5.96687 3.74816 6.01207 3.75035C6.05727 3.75254 6.10102 3.76695 6.13867 3.79206L9.13867 5.79206C9.17292 5.81489 9.201 5.84582 9.22042 5.8821C9.23984 5.91839 9.25 5.95891 9.25 6.00006C9.25 6.04122 9.23984 6.08174 9.22042 6.11803C9.201 6.15431 9.17292 6.18525 9.13867 6.20807Z" fill="white"/>
</svg>
